<svg xmlns="http://www.w3.org/2000/svg" width="200.83" height="40.05" viewBox="0 0 200.83 40.05"><defs><style>.a{fill:#251e1c;}.b{fill:#1d4293;}</style></defs><title>logo</title><path class="a" d="M98.16,6.75l.64-.56a11.772,11.772,0,0,1,1.53,1.76l-.79.64a6.768,6.768,0,0,0-.52-.79c-.07-.09-.36-.45-.86-1.05M69.51,3.22h1.76V4.98H69.51Zm-2.37-.79V.48h-.86V2.43H65v.79h1.28v5.4h.86V8.17h5.93V7.31H67.14V3.22h1.54V6.15h.83V5.74h1.76v.3h.86V3.22h1.31V2.43H72.13V.25h-.86V2.43H69.51V.21h-.83V2.43ZM82.79,4.65a8.962,8.962,0,0,1-.99-.47h1.84V.26H77V4.18h1.8a9.521,9.521,0,0,1-1.2.73,12.6,12.6,0,0,1-1.8.75c.22.32.39.56.49.71A10.231,10.231,0,0,0,78.54,5.2a3.266,3.266,0,0,1-.42,1.95,2.594,2.594,0,0,1-1.35.82,1.594,1.594,0,0,1,.53.75,3.915,3.915,0,0,0,1.31-.79,2.665,2.665,0,0,0,.64-1.01,8.091,8.091,0,0,0,.19-1.8h-.71a12.324,12.324,0,0,0,1.03-.96h1a2.619,2.619,0,0,0,.26.24,11.041,11.041,0,0,0,.9.71h-.67V8.68h.9V5.22a9.718,9.718,0,0,0,2.22,1.02,1.214,1.214,0,0,1,.18-.56,1.721,1.721,0,0,1,.27-.34,8.989,8.989,0,0,1-2.03-.69M77.86,1h1.95v.88H77.86Zm0,1.52h1.95v.95H77.86ZM80.68,1h2.06v.88H80.68Zm0,1.52h2.06v.95H80.68ZM96,6.53l-.64.82c-1.35-1.15-2.38-2.08-3.08-2.78-.4-.42-.8-.84-1.2-1.24a1.958,1.958,0,0,0-.45-.3L90.48,3l-.15.03a1.652,1.652,0,0,0-.41.49,21.837,21.837,0,0,1-1.61,2.02l-.75-.67c1.08-1.18,1.7-1.87,1.88-2.1.38-.53.73-.79,1.05-.79a1.064,1.064,0,0,1,.45.11c.07.05.46.4,1.16,1.05.83.81,1.62,1.52,2.37,2.18.12.1.63.51,1.53,1.21m12.69-3.01c2.2-.13,3.88-.28,5.03-.45l.04.9q-1.995.12-2.7.15a4.168,4.168,0,0,0-1.58.98,1.507,1.507,0,0,0-.45,1.05,1,1,0,0,0,.56.86,6.133,6.133,0,0,0,2.55.49l.04.94a7.457,7.457,0,0,1-2.25-.34,2.674,2.674,0,0,1-1.27-.82,1.748,1.748,0,0,1-.45-1.16,2.513,2.513,0,0,1,1.13-1.92l-3.68.38-.07-.83c.55-.02,1.05-.06,1.5-.11a24.466,24.466,0,0,0,3.46-2.33c-.55.1-.99.16-1.31.19-.1.03-.7.07-1.8.15L107.4.79a15.907,15.907,0,0,0,1.61-.04c.58-.05,1.03-.08,1.35-.11a8.608,8.608,0,0,0,.94-.19l.68.79c-.9.68-1.41,1.06-1.54,1.16-.5.34-1.08.72-1.75,1.12m14.73,1.09a3.409,3.409,0,0,0,.79.52,15.144,15.144,0,0,1-1.24,1.73,4.918,4.918,0,0,1-1.39.98,4.138,4.138,0,0,1-1.76.41,2.146,2.146,0,0,1-1.76-.71,3.374,3.374,0,0,1-.45-2.03l.12-4.92,1.09.04q-.3,3.2-.3,4.8a2.833,2.833,0,0,0,.23,1.43,1.267,1.267,0,0,0,1.16.53q2.085,0,3.51-2.78M134.94.89l.03.9-2.25.14a7.856,7.856,0,0,0-1.35,1.09,4.176,4.176,0,0,0-.64,1.02,2.331,2.331,0,0,0-.26,1.01,1.835,1.835,0,0,0,.38,1.2,2.316,2.316,0,0,0,1.01.75,5.382,5.382,0,0,0,1.76.33l-.04.97a8.092,8.092,0,0,1-2.06-.45,3.34,3.34,0,0,1-1.43-1.13,2.387,2.387,0,0,1-.49-1.54,3.362,3.362,0,0,1,.34-1.47,5.732,5.732,0,0,1,1.2-1.65l-1.69.19-2.63.34-.08-.98q3.135-.105,8.2-.72m7.79,3.88h2.93V3.98h-3.6V2.25h2.85V1.46h-2.85V0h-.9V1.46h-2.7v.79h2.7V3.98h-3.49v.79h2.88a14.373,14.373,0,0,1-1.38,1.27,10.914,10.914,0,0,1-1.91,1.24,2.547,2.547,0,0,1,.56.79,13.787,13.787,0,0,0,1.76-1.2,19.55,19.55,0,0,0,1.57-1.62V8.63h.9V5.21a11.8,11.8,0,0,0,1.54,1.61,17.247,17.247,0,0,0,1.84,1.35,2.382,2.382,0,0,1,.68-.75,10.248,10.248,0,0,1-3.38-2.65m12.9,1.61a9.24,9.24,0,0,1-1.55-1.28h3.09V4.28h-1.99c.32-.47.83-1.37.91-1.54l-.83-.38a14.37,14.37,0,0,1-.98,1.92h-.78V1.99h3.27V1.2H153.5V0h-.86V1.2h-3.3v.79h3.3V4.28h-3.71V5.1h2.98a9.085,9.085,0,0,1-1.52,1.24,13.253,13.253,0,0,1-1.76,1.05,3.023,3.023,0,0,1,.6.71c.55-.3,1.01-.56,1.39-.79a8.3,8.3,0,0,0,.83-.64,13.4,13.4,0,0,0,1.2-1.2V8.69h.86V5.54A11.665,11.665,0,0,0,157,8.21a1.948,1.948,0,0,1,.23-.41,2.581,2.581,0,0,1,.37-.41,11.689,11.689,0,0,1-1.97-1.01"/><path class="a" d="M151.14,2.88a5.263,5.263,0,0,1-.32-.56l-.75.41a11.652,11.652,0,0,1,.8,1.49l.75-.41a8.338,8.338,0,0,0-.48-.93m17.24,3.65-.64.82c-1.35-1.15-2.38-2.08-3.08-2.78-.4-.42-.8-.84-1.2-1.24a1.958,1.958,0,0,0-.45-.3L162.86,3l-.15.03a1.652,1.652,0,0,0-.41.49,21.837,21.837,0,0,1-1.61,2.02l-.75-.67c1.07-1.18,1.7-1.87,1.88-2.1.37-.53.72-.79,1.05-.79a1.064,1.064,0,0,1,.45.11c.08.05.46.4,1.16,1.05.83.81,1.61,1.52,2.37,2.18.11.1.63.51,1.53,1.21M132.6,13.42h2.67V33.26H132.6Zm8.35-1.02h2.76V36.55h-2.76Zm40.83,5.73h16.26v4.19h2.29V16h-3.76a19.12,19.12,0,0,0,2.02-4.19h-2.55A20.834,20.834,0,0,1,194.11,16h-2.92a33.942,33.942,0,0,0-1.7-4.14h-2.58A42.341,42.341,0,0,1,188.89,16h-3.36a41.056,41.056,0,0,0-1.86-4.14h-2.58A42.818,42.818,0,0,1,183.2,16h-3.72v6.32h2.29V18.13M124.89,25.4c0,2.97-.44,6.21-1.92,8v3.65c3.44-2.21,4.65-6.73,4.65-11.65V12.86h-2.73V25.4m38.32-13.6H160.4v6.58c0,.17-.01.34-.01.52h-9.37v2.37h9.18a17.2,17.2,0,0,1-9.18,13.09v2.7c5.86-2.81,9.61-7.13,10.99-12.89a21.641,21.641,0,0,0,10.93,12.91V34.16c-4.41-2.35-8.1-7.37-9.47-12.89h9.47V18.9h-9.73V11.8M82.36,15.98V11.81H79.94v4.17h-4.9V31.27h4.9v5.29h2.42V31.27h5.13V15.98H82.36m2.75,6.46H82.36V18.11h2.75Zm-5.17,0H77.43V18.11h2.51Zm-2.52,1.98h2.51v4.71H77.42Zm4.94,0h2.75v4.71H82.36Z"/><path class="a" d="M200.83,27.5h-9.41V26.26a9.9,9.9,0,0,0,4.51-3.81V20.19H183.8v2.13h9.38a5.577,5.577,0,0,1-2.35,2.32h-2.02V27.5h-9.89v2.14h9.89v4.27c0,.51-.17.67-.7.67h-4.07v2.13h4.6c1.8,0,2.77-.71,2.77-2.53V29.64h9.41l.01-2.14M110.4,17.18H116V15.04H105.46a14.147,14.147,0,0,0,1.14-3.24h-2.73a15.573,15.573,0,0,1-1.31,3.24H95.3v2.14h5.78a14.062,14.062,0,0,1-6.38,4.07v2.28a22.086,22.086,0,0,0,4.91-2.23v1.77h11.95V21.15a18.923,18.923,0,0,0,5.05,2.4V21.26a12.665,12.665,0,0,1-6.21-4.08m-10.24,3.76a15.77,15.77,0,0,0,3.99-3.76h3.26a16.349,16.349,0,0,0,3.84,3.76Zm-5.47,6.94h9.56v5.9c0,.4-.12.64-.72.64H101.1v2.14h3.23c1.9,0,2.68-.73,2.68-2.44V27.88h9.6V25.74H94.7l-.01,2.14"/><path class="a" d="M112.33,29.78h-2.8a13.28,13.28,0,0,0,7.08,6.12V33.48a10,10,0,0,1-4.28-3.7m-13.61,0a8.565,8.565,0,0,1-4.03,3.76v2.3a11.733,11.733,0,0,0,6.76-6.06H98.72M73.65,18.28V15.97H70.77V11.8H68.34v4.17H65V18.1h6.18a16.467,16.467,0,0,1-6.39,9.91v2.68a27.439,27.439,0,0,0,3.56-3.04v8.89h2.43V25.92a12.689,12.689,0,0,0,2.99,3.44V26.51a17.484,17.484,0,0,1-2.22-2.98,17.988,17.988,0,0,0,2.1-5.25"/><path class="b" d="M40.47,11.23v2.19h2.84a2.194,2.194,0,0,1,2.2,2.2V29.93c0,2.6-2.63,4.29-5.88,4.29s-5.87-1.69-5.87-4.29V28.36H35.8V26.17H33.76V15.6a2.2,2.2,0,0,1,2.2-2.18h1.57V11.23H22.14v2.19h1.48a2.2,2.2,0,0,1,2.2,2.15v3.79l-8-8.13,8.25-6.58a9.892,9.892,0,0,1,4.95-2.2h1.92V.27H19.31V2.45h.96c1.13,0,.99.85-.26,1.94l-7.72,6.29V4.62a2.2,2.2,0,0,1,2.2-2.18h2.16V.26H0V2.44H2.16a2.2,2.2,0,0,1,2.2,2.2V23.96a2.194,2.194,0,0,1-2.2,2.2H0v2.19H16.66V26.16H14.5a2.2,2.2,0,0,1-2.2-2.18V15.62l.06-.05,8.08,8.38c1.17,1.22,1.14,2.2-.07,2.2H19.33v2.19h6.51v1.21c0,6.03,5.53,10.5,12.36,10.5s12.36-4.47,12.36-10.5V15.44a2.2,2.2,0,0,1,2.19-2.05h2.34V11.2H40.47"/></svg>